<svg width="55" height="55" viewBox="0 0 55 55" fill="none" xmlns="http://www.w3.org/2000/svg">
<rect x="1" y="1" width="53" height="53" stroke="#ECBFD3" stroke-width="2"/>
<path d="M23.6406 33V22.4883H20.3711V33H23.6406ZM21.9883 21.082C23.043 21.082 23.8867 20.2031 23.8867 19.1484C23.8867 18.1289 23.043 17.2852 21.9883 17.2852C20.9688 17.2852 20.125 18.1289 20.125 19.1484C20.125 20.2031 20.9688 21.082 21.9883 21.082ZM35.8398 33H35.875V27.2344C35.875 24.4219 35.2422 22.2422 31.9375 22.2422C30.3555 22.2422 29.3008 23.1211 28.8438 23.9297H28.8086V22.4883H25.6797V33H28.9492V27.7969C28.9492 26.4258 29.1953 25.125 30.8828 25.125C32.5703 25.125 32.6055 26.6719 32.6055 27.9023V33H35.8398Z" fill="white"/>
</svg>
