<svg width="126" height="97" viewBox="0 0 126 97" fill="none" xmlns="http://www.w3.org/2000/svg">
<circle cx="48" cy="48.5" r="48" fill="#F7E5C1" fill-opacity="0.5"/>
<path d="M67.7759 9.5C80.1155 9.5 90.201 19.3917 90.5278 31.6592L90.5356 32.2451V52.3721L92.4253 52.8291L96.5854 44.7334L96.7505 44.4111L96.6724 44.0576C96.302 42.4027 95.6457 38.9579 95.7036 35.6572C95.7326 34.0057 95.9402 32.4517 96.4116 31.1953C96.8793 29.9491 97.5761 29.0671 98.5542 28.6035L98.5552 28.6045C99.8562 27.9892 101.842 28.0254 104.147 28.6182C106.408 29.1997 108.788 30.2677 110.74 31.4629V31.4639C111.85 32.1469 113.306 33.1629 114.484 34.3936C115.604 35.5635 116.367 36.8149 116.489 38.0693L116.504 38.3203V38.5225C116.479 39.5297 116.044 40.5423 115.26 41.5557C114.423 42.6381 113.235 43.6579 111.902 44.5791C109.237 46.421 106.159 47.7561 104.655 48.3545L104.325 48.4863L104.151 48.7959L94.3276 66.3643L94.0581 66.8447L94.3218 67.3291C96.37 71.099 96.1732 75.8452 95.9136 81.1523C95.8177 82.9904 95.7202 84.935 95.7202 86.9004C95.72 87.2279 95.4472 87.5 95.1196 87.5H40.4644C40.1368 87.5 39.864 87.2279 39.8638 86.9004C39.8638 85.4262 39.8096 83.9634 39.7417 82.5488L39.6704 81.1523C39.3121 73.8223 39.0646 67.551 44.6313 63.5518L45.0483 63.2529V32.2441C45.0483 19.7076 55.2411 9.50007 67.7759 9.5ZM53.6069 61.2842C53.4781 61.3128 53.3545 61.3545 53.2974 61.373L53.1802 61.4072L53.1685 61.4102C46.8587 62.7477 43.4983 65.1206 41.9165 68.6621C41.1466 70.3859 40.8355 72.31 40.7378 74.3711C40.6647 75.9132 40.7099 77.5719 40.7876 79.3184L40.8735 81.0938C40.9375 82.4688 41.001 83.8808 41.0327 85.3379L41.0532 86.3164H65.7017L63.7554 84.5713C58.0048 79.4175 55.9914 73.6144 55.5405 72.0869L55.437 71.708L55.4351 71.7031L55.4204 71.6123C55.4053 71.4299 55.4768 71.25 55.6157 71.127L55.6899 71.0703L55.6958 71.0674L58.1919 69.4512L59.4438 68.6406L58.2183 67.79L54.5122 65.2188H54.5132C54.3058 65.0724 54.2089 64.8076 54.2651 64.5723L54.7925 62.5078L55.1958 60.9307L53.6069 61.2842ZM80.7749 62.4922L81.3003 64.5439V64.5449C81.3625 64.7998 81.2653 65.0539 81.0562 65.2021L77.3501 67.7744L76.1245 68.625L77.3765 69.4355L79.8726 71.0518L79.8774 71.0547C80.0917 71.1915 80.1914 71.4454 80.1323 71.6875L80.1304 71.6943L80.1284 71.7021C80.074 71.9417 78.3861 78.68 71.814 84.5547L69.8608 86.2998H94.4985L94.52 85.3223C94.5516 83.8836 94.6303 82.4813 94.6948 81.0938C94.8142 78.6907 94.9281 76.4274 94.8306 74.3711C94.7328 72.31 94.4208 70.386 93.6509 68.6621C92.0745 65.1328 88.7323 62.7638 82.4644 61.4238C82.4275 61.4121 82.396 61.4009 82.3081 61.3691C82.223 61.3384 82.0944 61.2946 81.9399 61.2637L80.3813 60.9512L80.7749 62.4922ZM56.4712 60.7168L55.687 63.7891L55.5151 64.4629L56.0874 64.8584L60.8472 68.1494H60.8481C61.0006 68.2567 61.1063 68.4523 61.1108 68.6621C61.101 68.8376 61.0198 68.9978 60.894 69.1035L60.8354 69.1465L60.8315 69.1494L57.3589 71.4053L56.6958 71.8369L56.9624 72.5811C57.8502 75.0601 60.5882 81.1243 67.2007 85.7812L67.7759 86.1875L68.3521 85.7812C74.9643 81.1244 77.7016 75.06 78.5894 72.5811L78.856 71.8369L78.1929 71.4053L74.7261 69.1523C74.5766 69.0506 74.4741 68.8847 74.4468 68.7178L74.4399 68.6455C74.4356 68.4853 74.5042 68.3216 74.6411 68.1992L74.7036 68.1494L79.4644 64.8584L80.0356 64.4639L79.8657 63.791L79.1294 60.8789L78.7964 59.5596L77.6362 60.2715C74.6447 62.1089 71.2909 63.0195 67.9204 63.0195C64.4759 63.0195 61.0137 62.049 57.9761 60.1201L56.812 59.3809L56.4712 60.7168ZM97.1431 46.2021L90.6147 58.8906L90.5044 59.1055V63.2432L90.9292 63.542C91.4658 63.9191 91.9339 64.328 92.3647 64.7588L93.3003 65.6943L93.9448 64.5391L102.553 49.1152L103.047 48.2295L102.155 47.748L98.5063 45.7803L97.6089 45.2959L97.1431 46.2021ZM67.7759 10.7002C55.9111 10.7003 46.2476 20.3644 46.2476 32.2441V62.4863L47.645 61.8818C48.9495 61.317 50.4235 60.8084 52.1528 60.3994L52.9097 60.2305L52.9165 60.2295C56.7277 59.4024 59.5625 56.2731 60.064 52.4043L60.1284 51.9014L59.7622 51.5518C56.2734 48.2284 53.9282 42.7749 53.9282 36.5479V36.4209C53.943 36.1448 54.1382 35.92 54.3579 35.8506L54.4536 35.8311L54.4575 35.8301C62.4717 34.9812 69.4075 29.5729 73.2427 21.4551L73.604 20.6611L73.6069 20.6543C73.6657 20.5173 73.7897 20.3968 73.9429 20.335L74.0103 20.3115C74.1667 20.2685 74.3501 20.2952 74.5151 20.4121C78.8273 23.6411 81.6079 29.7866 81.6079 36.5479C81.6079 42.7767 79.2779 48.2296 75.7905 51.5518L75.4224 51.9023L75.4888 52.4053C75.9741 56.1149 78.6442 59.2195 82.2847 60.1475L82.6401 60.2305H82.6421C84.7039 60.6645 86.4159 61.2363 87.9067 61.8818L89.3042 62.4863V32.2441C89.3042 20.3649 79.6572 10.7002 67.7759 10.7002ZM73.2007 53.5352C71.5142 54.4967 69.6834 55.0195 67.7759 55.0195C65.8689 55.0195 64.0528 54.497 62.3804 53.5498L61.2788 52.9258L60.9272 54.1426C60.5176 55.5618 59.8315 56.8448 58.9146 57.9365L58.1509 58.8447L59.1753 59.4434C64.5236 62.5675 71.0956 62.6007 76.4761 59.5625L77.5347 58.9648L76.7437 58.041C75.7878 56.9258 75.0834 55.583 74.6558 54.123L74.3003 52.9082L73.2007 53.5352ZM73.8003 23.0312C69.8933 30.5661 63.4039 35.5576 55.9917 36.8262L55.1138 36.9766L55.1616 37.8652C55.3951 42.2265 56.8259 46.1786 59.0454 49.0635C61.2649 51.9481 64.3254 53.8203 67.7759 53.8203C71.3982 53.8203 74.5846 51.7638 76.8257 48.6318C79.0681 45.4979 80.4243 41.2208 80.4243 36.5479C80.4243 31.1572 78.5812 26.0733 75.4067 22.7959L74.4399 21.7988L73.8003 23.0312ZM101.321 29.3457C100.617 29.3118 99.9145 29.3657 99.312 29.5869L99.061 29.6924H99.0601C98.1267 30.1345 97.639 31.1137 97.3667 32.0498C97.0811 33.0318 96.953 34.2377 96.9282 35.5107C96.8784 38.0663 97.242 41.1015 97.7905 43.6396L97.8882 44.0898L98.2935 44.3076L99.5093 44.9639L100.39 45.4395L100.865 44.5576L102.913 40.75L102.916 40.7451C103.05 40.4915 103.336 40.374 103.608 40.4561L103.723 40.5029C104.013 40.6568 104.125 41.0091 103.964 41.3115L101.919 45.1143L101.444 45.998L102.33 46.4707L103.53 47.1104L103.942 47.3311L104.376 47.1543C106.638 46.2367 109.299 44.8753 111.406 43.4014C112.456 42.6661 113.406 41.8771 114.099 41.0742C114.726 40.3478 115.258 39.4776 115.301 38.5361L115.303 38.3467V38.3418L115.292 38.1729C115.204 37.3211 114.651 36.3983 113.887 35.5342C113.034 34.5686 111.78 33.5203 110.109 32.4971H110.11C108.129 31.2734 105.956 30.338 104.031 29.8135C103.068 29.5513 102.144 29.3854 101.321 29.3457Z" fill="white" stroke="#BA7894" stroke-width="2"/>
</svg>
