<svg width="126" height="97" viewBox="0 0 126 97" fill="none" xmlns="http://www.w3.org/2000/svg">
<circle cx="48" cy="48.5" r="48" fill="#F7E5C1" fill-opacity="0.5"/>
<g clip-path="url(#clip0_1_1049)">
<path d="M61.3418 16.7026L75.2949 26.4646L57.7054 51.6056L43.7524 41.8435L61.3418 16.7026Z" fill="white"/>
<path d="M82.936 44.9202L95.8064 37.4893L108.125 58.8249L95.2545 66.2558L82.936 44.9202Z" fill="white"/>
<path d="M93.6325 23.7982C94.252 23.7895 94.8645 23.6572 95.4328 23.4067C97.206 22.6253 98.471 21.0091 98.8039 19.1002C99.1982 16.8389 97.3564 14.8119 95.0679 14.9882C94.2652 15.0499 93.5289 15.3823 92.9608 15.9031L87.4737 19.3879L87.1091 24.439L93.6325 23.7982Z" fill="white"/>
<path d="M95.0679 14.9881C94.2652 15.0499 93.5289 15.3822 92.9608 15.9031L87.4737 19.3879L87.1091 24.4389L88.3033 24.3216L91.2219 21.7738C91.5812 21.5518 91.9186 21.3019 92.2274 21.0291C93.9965 19.4666 95.0347 17.287 95.1726 14.9815C95.1364 14.9832 95.1042 14.9853 95.0679 14.9881Z" fill="white"/>
<path d="M89.9984 20.0925C90.3029 19.9159 90.591 19.711 90.8565 19.4766C92.537 17.9922 93.3642 15.766 93.0609 13.5443C92.7014 10.9126 89.9589 9.32455 87.4976 10.3225C87.092 10.4869 86.7248 10.7134 86.4021 10.9859L81.1132 15.0569L78.9258 20.9856L87.0342 22.6803L89.9984 20.0925Z" fill="white"/>
<path d="M88.7522 10.031C88.3329 10.0595 87.9135 10.1538 87.4974 10.3227C87.0918 10.4871 86.7246 10.7136 86.4019 10.9861L81.113 15.0571L78.9255 20.9858L80.1738 21.2466L83.4569 19.6027L84.1016 19.2975C85.157 18.7978 86.1025 18.0532 86.8353 17.1443C88.4622 15.1265 89.1344 12.5474 88.7522 10.031Z" fill="white"/>
<path d="M82.3844 17.4017L83.0538 17.0848C83.7824 16.7399 84.4235 16.2349 84.9295 15.6075C86.337 13.8621 86.7789 11.5286 86.1069 9.38932C85.3109 6.85541 82.3407 5.7501 80.0817 7.14708C79.9004 7.2593 79.7304 7.38452 79.572 7.52047L74.1839 11.618L73.0942 20.0923L78.4183 19.3875L82.3844 17.4017Z" fill="white"/>
<path d="M82.0346 6.54056C81.3686 6.56993 80.7006 6.76463 80.082 7.14725C79.9007 7.25947 79.7306 7.38469 79.5723 7.52064L74.1842 11.6182L73.2246 19.0806L75.7205 18.9612L76.7232 19.1847L79.4497 16.6734C80.4383 15.763 81.222 14.6211 81.7159 13.3714C82.5909 11.158 82.6781 8.75945 82.0346 6.54056Z" fill="white"/>
<path d="M75.9485 16.3111C75.9493 16.3113 75.9502 16.3115 75.951 16.3117L77.6637 14.7341C78.3661 14.0871 78.9133 13.2899 79.2642 12.4019C80.2409 9.93162 79.918 7.13654 78.4037 4.95418C76.61 2.36886 72.8612 2.16588 70.7988 4.54238C70.7037 4.65196 70.616 4.76607 70.5322 4.88206L66.3682 9.59608L67.5013 16.715L75.9485 16.3111Z" fill="white"/>
<path d="M101.464 37.1626L96.1053 32.5853L86.4018 23.7982L82.9377 27.6818L94.8551 39.5029L97.1679 42.266L100.255 43.4018L103.619 41.1021L101.464 37.1626Z" fill="white"/>
<path d="M66.1604 10.7758L61.4102 13.9945L53.1596 20.9856L51.6389 24.5551L53.1596 28.5173L56.793 27.2789L60.7702 22.5272L68.8948 15.5122L69.3096 16.2303L66.1604 10.7758Z" fill="white"/>
<path d="M74.0194 11.2909C73.733 10.6451 73.617 9.93179 73.6835 9.22812L73.7583 8.43746C73.9307 6.61738 73.5042 4.79957 72.5801 3.25082C71.9186 3.52593 71.3089 3.95449 70.7988 4.54235C70.7037 4.65194 70.616 4.76605 70.5322 4.88204L66.3682 9.59605L67.5013 16.715L75.9483 16.3109C75.9491 16.3111 75.95 16.3113 75.9508 16.3115C75.9508 16.3115 76.4552 15.937 76.6816 15.6385C76.6818 15.6387 74.5875 12.5725 74.0194 11.2909Z" fill="white"/>
<path d="M92.08 79.9148C91.937 80.7727 91.7706 81.6276 91.5746 82.4771L90.8666 85.5454C89.5775 91.1311 84.6038 95.0878 78.8713 95.0878C71.7691 95.0878 66.14 89.0945 66.5849 82.006L67.314 70.3877C67.5238 67.047 67.3942 63.7019 66.9386 60.4012L63.3447 45.6489L60.8008 33.8143C60.4368 29.4798 60.5327 25.1055 61.0966 20.7647L61.4843 17.7802C61.6478 16.5216 61.6229 15.2455 61.4102 13.9943C61.2132 12.8353 60.8571 11.7091 60.3521 10.6475L60.0864 10.0892C58.281 6.29371 61.0488 1.91223 65.252 1.91223C68.624 1.91223 71.2643 4.81426 70.9465 8.17141L70.8715 8.96207C70.7591 10.1493 70.954 11.3455 71.4373 12.4358C72.3903 14.5856 74.3654 16.1079 76.6869 16.4826L84.0293 17.6674C92.0668 18.9642 97.4197 26.6767 95.8233 34.6601L92.9471 49.0443L92.08 79.9148Z" fill="white"/>
<path d="M92.141 77.7458L92.8808 51.4053C91.4949 50.075 89.6221 49.2958 87.6618 49.2958C86.1676 49.2958 84.7208 49.737 83.4771 50.5717C80.4786 52.5843 79.3347 56.4541 80.7569 59.7732L84.6466 68.8507C86.2183 72.5185 88.8318 75.6015 92.141 77.7458Z" fill="white"/>
<path d="M117.564 74.9195L113.733 67.5507C113.513 67.1285 113.399 66.6596 113.399 66.1838V49.7848C113.399 48.2434 112.724 46.7794 111.552 45.7783L101.464 37.1625L97.1675 42.266L100.509 46.2584C100.866 46.6853 101.02 47.2464 100.931 47.7959L99.1137 58.9558C98.9657 59.8647 98.1807 60.5323 97.2598 60.5323H95.3344C94.6746 60.5323 94.0632 60.1862 93.7237 59.6203L90.8816 54.8832C89.7774 53.0429 87.3574 52.5027 85.5756 53.6986C84.078 54.7037 83.5081 56.6323 84.2183 58.2898L88.1078 67.3673C89.6816 71.04 92.5557 74.0025 96.1791 75.6866L98.0964 76.5778L102.498 82.5284C103.278 83.5826 104.688 83.9506 105.883 83.4117L116.237 78.7453C117.696 78.0877 118.303 76.3392 117.564 74.9195Z" fill="white"/>
<path d="M84.9711 93.3468C77.8687 93.3468 72.2398 87.3535 72.6847 80.2651L73.4138 68.6468C73.6236 65.306 73.494 61.9609 73.0384 58.6602L71.5915 52.721C71.4047 51.9546 71.4717 51.1487 71.7824 50.4238C72.8429 47.9495 75.2977 42.2225 75.2977 42.2225C76.6885 38.9766 75.5698 35.1924 72.6377 33.2245L72.3782 33.0503C71.162 32.2341 69.7469 31.8027 68.2859 31.8027H68.2718C67.483 31.8034 66.8285 31.1883 66.7841 30.4006C66.5698 26.6153 66.7052 22.807 67.1966 19.0239L67.5843 16.0394C67.7478 14.7808 67.7229 13.5047 67.5101 12.2535C67.3132 11.0945 66.9571 9.96834 66.4521 8.90672L66.1864 8.34842C65.1523 6.17435 65.6234 3.80896 67.0006 2.18396C66.4267 2.00037 65.8094 1.90396 65.1698 1.913C60.9985 1.97175 58.3427 6.42346 60.1346 10.1907L60.352 10.6479C60.857 11.7095 61.2131 12.8357 61.4101 13.9947C61.6227 15.2459 61.6477 16.522 61.4843 17.7806L61.0966 20.7651C60.5326 25.1059 60.4368 29.4802 60.8007 33.8146L63.3446 45.6493L66.9385 60.4016C67.3943 63.7023 67.5237 67.0474 67.3139 70.3881L66.5849 82.0064C66.1399 89.0947 71.769 95.088 78.8712 95.088C81.16 95.088 83.3327 94.4544 85.1933 93.341C85.121 93.3421 85.0436 93.3468 84.9711 93.3468Z" fill="white"/>
<path d="M70.5389 36.3516L70.2793 36.1772C68.5765 35.0342 66.2636 35.5505 65.2084 37.3092L62.2277 42.2771C61.9183 42.7928 61.361 43.1082 60.7595 43.1082H58.5986C57.7592 43.1082 57.0437 42.4996 56.9089 41.6713L55.0775 30.4245C54.9826 29.8418 55.1458 29.2466 55.5249 28.7937L56.7927 27.279L53.1593 20.9858L45.4369 27.5293C43.6384 29.0532 42.6015 31.2911 42.6015 33.6482V48.76C42.6015 49.2358 42.4868 49.7046 42.2675 50.1268L38.3889 57.5856C37.676 58.9566 38.2616 60.6449 39.6705 61.2798L50.187 66.0196C51.3415 66.5399 52.7025 66.1848 53.4557 65.1668L57.9034 59.1541L59.8785 58.2362C63.4648 56.5694 66.3096 53.6372 67.8672 50.0022L71.8361 40.7396C72.5149 39.1551 71.9702 37.3121 70.5389 36.3516Z" fill="white"/>
<path d="M78.8711 96.5C75.0421 96.5 71.4897 94.9629 68.8682 92.1718C66.2469 89.3809 64.9353 85.739 65.1751 81.9175L65.3478 79.1663C65.3966 78.3879 66.066 77.7972 66.8457 77.8452C67.6241 77.894 68.2156 78.5647 68.1668 79.3431L67.9941 82.0943C67.8036 85.1293 68.8452 88.0216 70.9271 90.238C73.0089 92.4546 75.8301 93.6754 78.8709 93.6754C83.9755 93.6754 88.3423 90.2015 89.4901 85.2276L90.1983 82.1593C90.3796 81.3732 90.544 80.5398 90.6867 79.6826C90.815 78.9132 91.5403 78.3928 92.3119 78.5216C93.0813 78.6496 93.601 79.3772 93.473 80.1466C93.3206 81.061 93.145 81.9518 92.9505 82.7944L92.2423 85.8629C90.7971 92.1261 85.2986 96.5 78.8711 96.5Z" fill="#BA7894"/>
<path d="M67.1364 74.6489C67.1067 74.6489 67.0767 74.648 67.0466 74.6461C66.2682 74.5971 65.6768 73.9266 65.7255 73.1482L65.9044 70.2996C66.1066 67.0778 65.9837 63.8126 65.5393 60.5948C65.4327 59.8222 65.9724 59.1093 66.7452 59.0025C67.5179 58.8962 68.2306 59.4358 68.3374 60.2084C68.8076 63.6124 68.9375 67.0671 68.7234 70.4764L68.5445 73.325C68.4974 74.0733 67.8759 74.6489 67.1364 74.6489Z" fill="#BA7894"/>
<path d="M118.925 78.9468C118.415 78.9468 117.923 78.6696 117.671 78.1857L112.48 68.202C112.157 67.5816 111.986 66.8835 111.986 66.1836V61.0782C111.986 60.2982 112.618 59.6659 113.399 59.6659C114.179 59.6659 114.811 60.2982 114.811 61.0782V66.1836C114.811 66.4316 114.871 66.6789 114.986 66.8988L120.177 76.8827C120.537 77.5747 120.267 78.4273 119.576 78.7871C119.367 78.8956 119.145 78.9468 118.925 78.9468Z" fill="#BA7894"/>
<path d="M52.1643 68.3234C51.8724 68.3234 51.5781 68.2332 51.3254 68.0465C50.6984 67.5827 50.566 66.6982 51.03 66.0712L56.7681 58.314C56.9086 58.1241 57.0943 57.9728 57.3084 57.8731L59.2834 56.9552C61.6817 55.8405 63.7362 54.092 65.2245 51.8989C65.6627 51.2534 66.5409 51.0854 67.186 51.5232C67.8315 51.9612 67.9995 52.8394 67.5615 53.4847C65.7862 56.1007 63.3354 58.1863 60.4736 59.5164L58.8249 60.2828L53.3006 67.7508C53.0237 68.1254 52.5968 68.3234 52.1643 68.3234Z" fill="#BA7894"/>
<path d="M112.469 44.7044L97.5166 31.9337C97.5377 29.4431 96.9667 27.0007 95.8375 24.7668C95.8925 24.7444 95.9479 24.7229 96.0025 24.699C98.2127 23.7247 99.7801 21.7224 100.195 19.3427C100.458 17.8324 100.018 16.3151 98.9872 15.1804C97.9561 14.0459 96.4887 13.4633 94.9593 13.58C94.8015 13.5923 94.6452 13.6143 94.4899 13.6416C94.4803 13.5456 94.4728 13.4496 94.4596 13.3533C94.2289 11.6639 93.2503 10.2048 91.7748 9.35033C90.4381 8.57606 88.8739 8.40471 87.4161 8.85587C86.8857 7.28246 85.6968 6.05175 84.1356 5.47066C82.8848 5.005 81.5428 5.01235 80.3234 5.46614C80.107 5.01197 79.8564 4.57042 79.5641 4.14919C78.4588 2.5562 76.7145 1.58233 74.7784 1.47745C73.2195 1.3929 71.7231 1.88323 70.5357 2.84204C70.5329 2.83884 70.5302 2.83564 70.5274 2.83243C69.1788 1.35016 67.2559 0.5 65.2519 0.5C62.7907 0.5 60.5364 1.74238 59.2221 3.82325C57.9076 5.90412 57.7541 8.47343 58.8112 10.6959L59.0769 11.2542C59.4128 11.9607 59.6747 12.6992 59.8587 13.458L44.5242 26.4516C42.4051 28.2474 41.1896 30.8704 41.1896 33.648V48.7596C41.1896 49.0076 41.1292 49.2548 41.0147 49.4749L35.8231 59.4586C35.4633 60.1506 35.7326 61.0032 36.4246 61.363C36.6326 61.4713 36.8554 61.5225 37.0749 61.5225C37.585 61.5225 38.0774 61.2453 38.3292 60.7614L43.5205 50.7777C43.8433 50.1571 44.0141 49.4591 44.0141 48.7594V33.6478C44.0141 31.7019 44.8655 29.8643 46.3503 28.6063L60.1502 16.9131C60.1345 17.1419 60.1136 17.3703 60.0841 17.5983L59.6962 20.583C59.6444 20.9814 59.5979 21.3806 59.5538 21.7802L54.4423 27.887C53.7995 28.6551 53.5231 29.6627 53.6841 30.6512L55.5154 41.898C55.7627 43.4174 57.0597 44.5202 58.599 44.5202H60.7599C61.8509 44.5202 62.8775 43.9392 63.439 43.0033L66.4197 38.0355C66.7291 37.5201 67.2224 37.1641 67.809 37.0332C68.3957 36.9023 68.9935 37.0145 69.4925 37.3495L69.7524 37.5239C70.6187 38.1053 70.9494 39.2236 70.5383 40.1828L67.7809 46.6179C67.4738 47.3349 67.8059 48.1649 68.5228 48.4722C68.7041 48.55 68.8928 48.5867 69.0785 48.5867C69.6264 48.5867 70.1478 48.2659 70.3771 47.7303L73.1346 41.2953C74.08 39.0888 73.3195 36.5165 71.3263 35.1788L71.0667 35.0045C69.9186 34.2341 68.5433 33.9754 67.1938 34.2767C65.8443 34.578 64.7094 35.3969 63.998 36.5824L61.0173 41.5501C60.9634 41.6401 60.8648 41.6958 60.7601 41.6958H58.5992C58.4514 41.6958 58.3271 41.59 58.3032 41.444L56.4718 30.1973C56.4428 30.0193 56.4925 29.838 56.6083 29.6998L59.2092 26.5923C59.1283 29.0402 59.1889 31.4939 59.3938 33.9325C59.4589 34.7096 60.1409 35.2875 60.9192 35.2216C61.6963 35.1562 62.2736 34.4733 62.2083 33.6962C61.852 29.454 61.9493 25.1645 62.4973 20.9468L62.8852 17.9621C63.0669 16.5629 63.0392 15.1484 62.8029 13.7576C62.8001 13.741 62.7965 13.7247 62.7937 13.7081C62.7933 13.7066 62.7931 13.7053 62.7929 13.7038C62.5722 12.4354 62.181 11.203 61.6279 10.0408L61.3624 9.48252C60.7237 8.14015 60.8165 6.58821 61.6104 5.33151C62.4043 4.07482 63.7653 3.32445 65.2519 3.32445C66.4801 3.32445 67.6116 3.82476 68.4382 4.73329C69.2649 5.64182 69.6562 6.81548 69.5405 8.03828L69.4658 8.82894C69.3308 10.2542 69.5661 11.6993 70.1465 13.008C71.2975 15.6042 73.6584 17.4243 76.4621 17.8766L83.8046 19.0614C85.7469 19.3747 87.547 20.1049 89.1114 21.1888C89.1598 21.2279 89.2104 21.2637 89.2629 21.2957C90.4588 22.1502 91.5129 23.2133 92.3789 24.4612C92.4086 24.5041 92.4356 24.5485 92.4647 24.5918C92.4666 24.5947 92.4685 24.5975 92.4704 24.6003C94.4229 27.4897 95.1237 30.9561 94.4385 34.3827L91.5622 48.7669C91.4093 49.5318 91.9053 50.2757 92.6702 50.4286C92.7638 50.4473 92.8568 50.4563 92.9487 50.4563C93.6081 50.4563 94.1978 49.992 94.3321 49.3207L95.6626 42.6674L99.427 47.1649C99.521 47.2773 99.5615 47.4245 99.5379 47.569L97.7209 58.7289C97.684 58.9557 97.4904 59.1202 97.2609 59.1202H95.3353C95.1726 59.1202 95.0194 59.0336 94.9358 58.8939L92.0934 54.1569C91.3585 52.9319 90.1856 52.0856 88.7915 51.7744C87.3973 51.4631 85.9757 51.7301 84.7892 52.5264C82.7296 53.9087 81.944 56.5669 82.9209 58.8464L86.8104 67.9239C88.5239 71.9223 91.6398 75.1341 95.5846 76.9676L97.1758 77.707L102.7 85.1751C102.977 85.5494 103.404 85.7475 103.837 85.7475C104.128 85.7475 104.423 85.6573 104.675 85.4705C105.302 85.0067 105.435 84.1223 104.971 83.4953L99.2323 75.738C99.092 75.5482 98.9064 75.3968 98.6923 75.2972L96.7749 74.4062C93.4622 72.8665 90.8454 70.1693 89.4062 66.8112L85.5168 57.7338C85.0743 56.7014 85.4304 55.4974 86.363 54.8713C86.9004 54.5107 87.5446 54.3895 88.1757 54.5307C88.8073 54.6717 89.3383 55.0549 89.671 55.6098L92.5133 60.3468C93.1046 61.3323 94.1858 61.9445 95.335 61.9445H97.2605C98.8817 61.9445 100.248 60.7831 100.508 59.1827L102.325 48.0224C102.481 47.0673 102.214 46.0938 101.592 45.3518L96.3725 39.1154L97.1317 35.3189L110.634 46.8517C111.494 47.5855 111.987 48.6545 111.987 49.7845V55.0594C111.987 55.8393 112.619 56.4716 113.399 56.4716C114.179 56.4716 114.811 55.8393 114.811 55.0594V49.7848C114.811 47.8275 113.957 45.9756 112.469 44.7044ZM95.1764 16.396C95.8279 16.345 96.4565 16.5949 96.8967 17.0795C97.3371 17.5642 97.5252 18.2123 97.4126 18.8574C97.1603 20.3043 96.2073 21.5218 94.8635 22.1142C94.6799 22.1952 94.4904 22.2562 94.2971 22.3012C93.6823 21.4902 92.9988 20.7506 92.2576 20.0844C93.1831 19.126 93.8476 17.9696 94.2112 16.7186C94.5008 16.5352 94.8331 16.4226 95.1764 16.396ZM90.3596 11.7944C91.0749 12.2087 91.5492 12.9163 91.6613 13.7354C91.7456 14.3526 91.7178 14.9685 91.5916 15.5592C91.5846 15.5871 91.5796 15.6153 91.5743 15.6436C91.3344 16.6836 90.7812 17.6394 89.9657 18.3763C88.7133 17.612 87.3529 17.0234 85.9109 16.632C85.9502 16.5858 85.9909 16.541 86.0288 16.4939C87.1401 15.116 87.7502 13.4432 87.8191 11.7278C87.8874 11.6927 87.9569 11.66 88.0281 11.6312C88.7941 11.3207 89.6437 11.38 90.3596 11.7944ZM83.1505 8.11774C83.9255 8.40602 84.5118 9.02383 84.7598 9.8126C84.892 10.2334 84.9696 10.6631 84.9948 11.0925C84.9952 11.0968 84.9952 11.1009 84.9956 11.1053C85.0683 12.3981 84.6642 13.6868 83.83 14.7209C83.46 15.18 82.9827 15.556 82.4494 15.8084L82.1764 15.9375L78.9757 15.421C79.6621 14.7004 80.2121 13.8454 80.5774 12.921C81.1826 11.3902 81.3616 9.75969 81.1404 8.18289C81.7734 7.89913 82.4882 7.87126 83.1505 8.11774ZM72.7284 11.8632C72.3441 10.9962 72.1882 10.0391 72.2776 9.095L72.3524 8.30434C72.4486 7.2881 72.3221 6.27243 71.9976 5.32398C72.6849 4.61598 73.6313 4.24372 74.6257 4.29757C75.6847 4.355 76.6388 4.8877 77.2434 5.75895C77.6842 6.39426 77.9996 7.09152 78.1911 7.81647C78.2013 7.86411 78.2141 7.91118 78.2293 7.95769C78.5385 9.24413 78.4528 10.6127 77.9506 11.8826C77.6795 12.5685 77.2494 13.1954 76.7067 13.6951L75.606 14.7091C74.3361 14.1657 73.3038 13.1611 72.7284 11.8632Z" fill="#BA7894"/>
<path d="M77.6401 62.5821C77.1329 62.5821 76.6427 62.3081 76.3896 61.8283C75.4757 60.0949 74.9927 58.1368 74.9927 56.1655C74.9927 52.7215 76.4625 49.425 79.0254 47.1212C79.6058 46.5994 80.4983 46.6474 81.0199 47.2274C81.5413 47.8073 81.4938 48.7003 80.9137 49.2216C78.9458 50.9907 77.8173 53.5214 77.8173 56.1653C77.8173 57.6794 78.1877 59.182 78.8884 60.5108C79.2521 61.2009 78.9878 62.055 78.2978 62.4186C78.0875 62.5295 77.8623 62.5821 77.6401 62.5821Z" fill="#BA7894"/>
<path d="M84.9287 47.0617C84.2747 47.0617 83.6878 46.6049 83.5481 45.9394C83.3876 45.1761 83.8764 44.4274 84.6398 44.2672C86.1806 43.9435 87.8081 43.923 89.3568 44.2071C90.124 44.348 90.6318 45.0838 90.4909 45.8509C90.3501 46.6181 89.6146 47.1259 88.8471 46.9852C87.6582 46.767 86.4038 46.7826 85.2205 47.0314C85.1228 47.0519 85.0249 47.0617 84.9287 47.0617Z" fill="#BA7894"/>
<path d="M78.3168 43.1477C78.1677 43.1477 78.0158 43.124 77.8666 43.0737C77.1274 42.8252 76.7295 42.0244 76.978 41.2851C77.2746 40.4033 77.4249 39.4793 77.4249 38.5388C77.4249 33.7916 73.5627 29.9295 68.8156 29.9295C68.2303 29.9295 67.6461 29.9882 67.0789 30.1044C66.315 30.2615 65.5686 29.7681 65.4123 29.004C65.2558 28.2399 65.7486 27.4937 66.5127 27.3374C67.2657 27.1834 68.0405 27.1052 68.8156 27.1052C75.1201 27.1052 80.2493 32.2344 80.2493 38.539C80.2493 39.7861 80.0494 41.013 79.6553 42.1854C79.4568 42.7753 78.9066 43.1477 78.3168 43.1477Z" fill="#BA7894"/>
</g>
<defs>
<clipPath id="clip0_1_1049">
<rect width="96" height="96" fill="white" transform="translate(30 0.5)"/>
</clipPath>
</defs>
</svg>
