<svg width="126" height="97" viewBox="0 0 126 97" fill="none" xmlns="http://www.w3.org/2000/svg">
<circle cx="48" cy="48.5" r="48" fill="#F7E5C1" fill-opacity="0.5"/>
<g clip-path="url(#clip0_1_932)">
<mask id="mask0_1_932" style="mask-type:luminance" maskUnits="userSpaceOnUse" x="30" y="0" width="96" height="97">
<path d="M30 0.500008H126V96.5H30V0.500008Z" fill="white"/>
</mask>
<g mask="url(#mask0_1_932)">
<path d="M89.7383 71.9548V52.9592H66.2618V71.9548C66.2618 72.9741 65.5951 73.872 64.6197 74.1675C55.6073 76.8971 40.8623 79.5594 40.8623 91.9367V93.2691C40.8623 94.2769 41.6792 95.0938 42.6871 95.0938H113.313C114.321 95.0938 115.138 94.2769 115.138 93.2691V91.9367C115.138 79.5594 100.393 76.8971 91.3804 74.1675C90.405 73.872 89.7383 72.9741 89.7383 71.9548Z" fill="#F9F9F9"/>
<path d="M91.3804 74.1676C90.4048 73.8721 89.7383 72.9741 89.7383 71.9549V52.9593H84.1133V74.0174C84.1133 75.0366 84.7798 75.9346 85.7554 76.2301C94.7676 78.9597 109.513 79.9345 109.513 92.3118V93.2691C109.513 94.2768 108.696 95.0937 107.688 95.0937H113.313C114.321 95.0937 115.138 94.2769 115.138 93.2691V91.9368C115.138 79.5595 100.393 76.8972 91.3804 74.1676Z" fill="white"/>
<path d="M106.408 35.0696V30.3138C106.408 14.6248 93.6891 1.90627 78 1.90627C62.3108 1.90627 49.5923 14.6248 49.5923 30.3138V35.0696H106.408Z" fill="white"/>
<path d="M78 1.90627C76.5225 1.90627 75.0713 2.01933 73.6545 2.23683C88.029 4.38746 100.783 16.806 100.783 31.8052V35.0696H106.408V30.3138C106.408 14.6248 93.6891 1.90627 78 1.90627Z" fill="white"/>
<path d="M74.3606 16.5418C63.9811 16.5418 55.5669 24.9561 55.5669 35.3355V45.3995C55.5669 56.6272 70.7529 64.7767 78.0001 64.7767C85.2474 64.7767 100.434 56.6272 100.434 45.3995V35.3355C100.434 24.9561 92.0193 16.5418 81.6397 16.5418H74.3606Z" fill="#F9F9F9"/>
<path d="M81.6396 16.5418H76.0146C86.394 16.5418 94.8083 24.9561 94.8083 35.3355V45.3995C94.8083 55.3226 82.9474 62.84 75.1875 64.4533C76.2077 64.6654 77.1579 64.7767 78 64.7767C85.2472 64.7767 100.433 56.6272 100.433 45.3995V35.3355C100.433 24.9561 92.019 16.5418 81.6396 16.5418Z" fill="white"/>
<path d="M65.2428 57.3056L57.8191 49.7241L56.0696 41.1536L57.5656 34.4151L48.5557 21.9773L45.7256 6.19033C45.6341 5.6807 45.1469 5.3417 44.6373 5.43301L32.9249 7.53283C32.3992 7.62714 32.0585 8.1407 32.1757 8.66158L39.8731 42.8498C40.7276 46.6451 42.9254 50.0034 46.0616 52.3058L63.2009 64.8885C63.9738 65.4561 65.0662 65.3186 65.6551 64.5619C67.3535 62.3792 67.1756 59.2794 65.2428 57.3056Z" fill="white"/>
<path d="M50.9968 35.5927L52.7121 45.1605C53.0374 46.9745 54.7714 48.1813 56.5855 47.8561C58.3993 47.5308 59.6063 45.7968 59.281 43.983L57.5657 34.415L50.9968 35.5927Z" fill="white"/>
<path d="M90.7572 57.3056L98.1809 49.7241L99.9305 41.1536L98.4344 34.4151L107.444 21.9773L110.274 6.19033C110.366 5.6807 110.853 5.3417 111.363 5.43301L123.075 7.53283C123.601 7.62714 123.942 8.1407 123.824 8.66158L116.127 42.8498C115.272 46.6451 113.075 50.0034 109.938 52.3058L92.7991 64.8885C92.0262 65.4561 90.9339 65.3186 90.3449 64.5619C88.6465 62.3792 88.8245 59.2794 90.7572 57.3056Z" fill="white"/>
<path d="M123.075 7.53283L119.012 6.80439C119.288 7.0202 119.433 7.38245 119.35 7.74901L111.653 41.9372C110.799 45.7326 108.601 49.0911 105.465 51.3932L89.5269 63.0939C89.719 63.6107 89.9905 64.1064 90.3449 64.5619C90.9339 65.3186 92.026 65.4561 92.7989 64.8885L109.938 52.3058C113.075 50.0034 115.272 46.6451 116.127 42.8498L123.824 8.66158C123.942 8.1407 123.601 7.62714 123.075 7.53283Z" fill="white"/>
<path d="M105.003 35.5927L103.288 45.1605C102.963 46.9745 101.229 48.1813 99.4147 47.8561C97.6008 47.5308 96.3939 45.7968 96.7192 43.983L98.4345 34.415L105.003 35.5927Z" fill="white"/>
<path d="M106.133 79.1713C111.19 81.7288 115.138 85.5332 115.138 91.9363V93.2694C115.138 94.2763 114.321 95.0938 113.314 95.0938H42.6864C41.6796 95.0938 40.8621 94.2763 40.8621 93.2694V91.9363C40.8621 79.5594 55.6071 76.8969 64.6202 74.1669C65.5952 73.8725 66.2627 72.9744 66.2627 71.9544V63.5844" stroke="#BA7894" stroke-width="3" stroke-miterlimit="10" stroke-linecap="round" stroke-linejoin="round"/>
<path d="M89.7375 63.5844V71.9544C89.7375 72.9744 90.405 73.8725 91.38 74.1669C93.9413 74.9432 96.9657 75.7138 99.9807 76.7019" stroke="#BA7894" stroke-width="3" stroke-miterlimit="10" stroke-linecap="round" stroke-linejoin="round"/>
<path d="M78 1.90628C91.6237 1.90628 103.007 11.495 105.767 24.2919" stroke="#BA7894" stroke-width="3" stroke-miterlimit="10" stroke-linecap="round" stroke-linejoin="round"/>
<path d="M56.5314 29.3825C56.2426 30.2469 56.0139 31.1375 55.8545 32.0525" stroke="#BA7894" stroke-width="3" stroke-miterlimit="10" stroke-linecap="round" stroke-linejoin="round"/>
<path d="M66.8176 61.0981C70.8226 63.4381 75.0639 64.7769 78.0001 64.7769C80.9383 64.7769 85.1776 63.4381 89.1826 61.1" stroke="#BA7894" stroke-width="3" stroke-miterlimit="10" stroke-linecap="round" stroke-linejoin="round"/>
<path d="M71.7339 16.7263C72.5926 16.6044 73.4701 16.5425 74.3608 16.5425H81.6395C90.9001 16.5425 98.5933 23.2381 100.146 32.0525" stroke="#BA7894" stroke-width="3" stroke-miterlimit="10" stroke-linecap="round" stroke-linejoin="round"/>
<path d="M56.5259 29.3953C59.9133 21.2658 81.8243 10.8695 94.105 6.91158C89.5279 3.75577 83.9804 1.90627 78.0001 1.90627C73.2226 1.90627 68.7205 3.08564 64.7691 5.16914" stroke="#BA7894" stroke-width="3" stroke-miterlimit="10" stroke-linecap="round" stroke-linejoin="round"/>
<path d="M57.3863 47.6056C58.7382 46.9869 59.5557 45.5131 59.2801 43.9831L57.5663 34.415L48.5551 21.9763L45.7257 6.19065C45.6338 5.68065 45.1463 5.34128 44.6382 5.43315L32.9251 7.53315C32.4001 7.6269 32.0588 8.14065 32.1751 8.6619L39.8738 42.8506C40.727 46.6456 42.9263 50.0038 46.0613 52.3063L63.2007 64.8894C63.9732 65.4556 65.0663 65.3188 65.6551 64.5613C67.3538 62.3788 67.1757 59.2794 65.2426 57.305L57.8195 49.7244L57.3863 47.6056ZM57.3863 47.6056C57.137 47.72 56.8688 47.8063 56.5857 47.8569C54.7707 48.1813 53.0382 46.9738 52.712 45.1606L50.9963 35.5925" stroke="#BA7894" stroke-width="3" stroke-miterlimit="10" stroke-linecap="round" stroke-linejoin="round"/>
<path d="M105.003 35.5927L103.288 45.1605C102.963 46.9745 101.229 48.1813 99.4147 47.8562C97.6008 47.5308 96.3939 45.7968 96.7192 43.983L98.4344 34.415L107.445 21.9763L110.274 6.19065C110.366 5.68065 110.854 5.34128 111.362 5.43316L123.075 7.53315C123.6 7.6269 123.941 8.14066 123.825 8.66191L116.126 42.8507C115.273 46.6457 113.074 50.0038 109.939 52.3063L92.7995 64.8894C92.027 65.4556 90.9339 65.3188 90.3451 64.5613C88.6464 62.3788 88.8245 59.2794 90.7576 57.305L98.1807 49.7244L98.6139 47.6057" stroke="#BA7894" stroke-width="3" stroke-miterlimit="10" stroke-linecap="round" stroke-linejoin="round"/>
<path d="M64.6658 37.2286C66.483 36.1135 68.3003 36.1135 70.1177 37.2286" stroke="#BA7894" stroke-width="3" stroke-miterlimit="10" stroke-linecap="round" stroke-linejoin="round"/>
<path d="M85.8823 37.2286C87.6996 36.1135 89.5168 36.1135 91.3343 37.2286" stroke="#BA7894" stroke-width="3" stroke-miterlimit="10" stroke-linecap="round" stroke-linejoin="round"/>
<path d="M72.9661 51.7125C76.1781 53.1024 79.8218 53.1024 83.0339 51.7125" stroke="#BA7894" stroke-width="3" stroke-miterlimit="10" stroke-linecap="round" stroke-linejoin="round"/>
<path d="M50.2332 24.2919C51.5438 18.2207 54.7932 12.8713 59.3044 8.92628" stroke="#BA7894" stroke-width="3" stroke-miterlimit="10" stroke-linecap="round" stroke-linejoin="round"/>
</g>
</g>
<defs>
<clipPath id="clip0_1_932">
<rect width="96" height="96" fill="white" transform="translate(30 0.5)"/>
</clipPath>
</defs>
</svg>
