<svg width="126" height="97" viewBox="0 0 126 97" fill="none" xmlns="http://www.w3.org/2000/svg">
<circle cx="48" cy="48.5" r="48" fill="#F7E5C1" fill-opacity="0.5"/>
<path d="M69.1287 62.6707H39.3687V35.7352C39.3687 28.4115 45.3068 22.4733 52.6305 22.4733H57.6433L61.356 35.4691L69.1287 62.6707Z" fill="white"/>
<path d="M69.1287 62.6707H39.3687V56.4251L61.3562 35.4691L69.1287 62.6707Z" fill="white"/>
<path d="M104.297 52.6617L86.9198 38.3247H70.3602L52.9829 52.6617C48.8954 56.0343 51.28 62.6716 56.5792 62.6716H78.6402L78.64 62.6707H78.6408L78.6406 62.6716H100.702C106 62.6716 108.385 56.0341 104.297 52.6617Z" fill="white"/>
<path d="M117.47 76.2611H38.5301C34.7771 76.2611 31.7349 73.2187 31.7349 69.4659C31.7349 65.7129 34.7772 62.6707 38.5301 62.6707H117.47C121.223 62.6707 124.265 65.7131 124.265 69.4659C124.265 73.2189 121.223 76.2611 117.47 76.2611Z" fill="white"/>
<path d="M124.265 69.4657C124.265 71.3418 123.504 73.0421 122.276 74.2704C121.045 75.5009 119.347 76.262 117.469 76.262H38.5289C34.7769 76.262 31.7349 73.2178 31.7349 69.4657C31.7349 68.2282 32.0656 67.0693 32.6463 66.0699C33.8191 68.1009 36.0144 69.4657 38.5289 69.4657H117.469C119.347 69.4657 121.045 68.7046 122.276 67.4763C122.694 67.0576 123.057 66.5857 123.354 66.0699C123.934 67.0693 124.265 68.2282 124.265 69.4657Z" fill="white"/>
<path d="M48.0632 76.261H40.2268V93.3815H48.0632V76.261Z" fill="white"/>
<path d="M115.775 76.261H107.938V93.3815H115.775V76.261Z" fill="white"/>
<path d="M78.6407 57.0626C85.7639 57.0626 91.5384 51.288 91.5384 44.1648C91.5384 37.0416 85.7639 31.2671 78.6407 31.2671C71.5174 31.2671 65.7429 37.0416 65.7429 44.1648C65.7429 51.288 71.5174 57.0626 78.6407 57.0626Z" fill="white"/>
<path d="M91.5371 44.1648C91.5371 51.2896 85.7632 57.0635 78.6406 57.0635C71.5158 57.0635 65.7419 51.2896 65.7419 44.1648C65.7419 43.1124 65.8668 42.0898 66.1074 41.1114C67.4791 46.7604 72.5683 50.9542 78.6406 50.9542C84.7106 50.9542 89.7997 46.7602 91.1714 41.1114C91.4122 42.0898 91.5371 43.1122 91.5371 44.1648Z" fill="white"/>
<path d="M54.2891 29.4146C61.4123 29.4146 67.1869 23.64 67.1869 16.5168C67.1869 9.39357 61.4123 3.61905 54.2891 3.61905C47.1659 3.61905 41.3914 9.39357 41.3914 16.5168C41.3914 23.64 47.1659 29.4146 54.2891 29.4146Z" fill="white"/>
<path d="M126 69.4659C126 64.7622 122.174 60.9357 117.47 60.9357H106.965C107.237 60.4953 107.47 60.0226 107.652 59.5171C108.718 56.5479 107.835 53.3315 105.401 51.3234L92.9321 41.0356C91.4944 34.4669 85.6341 29.5334 78.6401 29.5334C71.9173 29.5334 66.2426 34.0921 64.5354 40.2796L61.3988 29.3C65.8821 26.7967 68.9222 22.0061 68.9222 16.5168C68.9222 8.4485 62.3582 1.88412 54.2895 1.88412C46.2208 1.88412 39.6564 8.44794 39.6564 16.5162C39.6564 19.6237 40.6331 22.5059 42.2914 24.878C39.318 27.7027 37.6337 31.5845 37.6337 35.7352V60.9832C33.3501 61.4326 30 65.0654 30 69.4662C30 74.1566 33.8055 77.9742 38.4913 77.9954V83.0382C38.4913 83.9964 39.2681 84.7732 40.2262 84.7732C41.1844 84.7732 41.9612 83.9964 41.9612 83.0382V77.996H46.3277V91.6458H41.9612V91.2948C41.9612 90.3367 41.1844 89.5599 40.2262 89.5599C39.2681 89.5599 38.4913 90.3367 38.4913 91.2948V93.3809C38.4913 94.3391 39.2681 95.1159 40.2262 95.1159H48.0626C49.0208 95.1159 49.7976 94.3391 49.7976 93.3809V91.7519L77.694 78.1902L106.043 91.9719C106.095 91.9976 106.149 92.0187 106.203 92.0388V93.3809C106.203 94.3391 106.979 95.1159 107.938 95.1159H115.774C116.732 95.1159 117.509 94.3391 117.509 93.3809V77.9951C122.194 77.9739 126 74.1564 126 69.4659ZM104.386 58.3437C103.936 59.5968 102.731 60.9357 100.7 60.9357H80.3749V58.6921C83.0976 58.3687 85.5919 57.2958 87.6478 55.6846C87.7926 55.7236 87.9441 55.7467 88.1012 55.7467H94.4241C95.3822 55.7467 96.159 54.9699 96.159 54.0117C96.159 53.0536 95.3822 52.2768 94.4241 52.2768H90.8119C92.0887 50.3667 92.928 48.1411 93.1864 45.7437L103.193 53.9997C104.759 55.292 104.836 57.0909 104.386 58.3437ZM52.8932 58.3437C52.443 57.0909 52.5201 55.2918 54.0864 53.9997L64.0939 45.743C64.3521 48.1407 65.1913 50.3666 66.4684 52.2768H62.8562C61.8981 52.2768 61.1213 53.0536 61.1213 54.0117C61.1213 54.9699 61.8981 55.7467 62.8562 55.7467H68.8472C69.0906 55.7467 69.3219 55.6963 69.5319 55.6059C71.6064 57.2609 74.1381 58.3638 76.9052 58.6925V60.9361H56.5793C54.5483 60.9357 53.3436 59.597 52.8932 58.3437ZM78.6401 33.0031C84.7952 33.0031 89.8029 38.0107 89.8029 44.1659C89.8029 50.3212 84.7954 55.3288 78.6401 55.3288C72.4849 55.3288 67.4773 50.3212 67.4773 44.1659C67.4773 38.0107 72.4851 33.0031 78.6401 33.0031ZM54.2891 5.35344C60.4442 5.35344 65.4519 10.361 65.4519 16.5162C65.4519 22.6715 60.4442 27.6791 54.2891 27.6791C48.1341 27.6791 43.1263 22.6717 43.1263 16.5162C43.1263 10.3608 48.1341 5.35344 54.2891 5.35344ZM44.6001 27.4683C47.1831 29.7562 50.5757 31.1489 54.2891 31.1489C55.632 31.1489 56.9316 30.9635 58.1677 30.6232L61.7541 43.1748L56.4789 47.5269L53.8153 39.5081C53.5133 38.5987 52.5309 38.1063 51.6219 38.4086C50.7126 38.7106 50.2204 39.6926 50.5224 40.6019L53.6094 49.8948L51.8783 51.3232C49.4445 53.3315 48.561 56.5477 49.6279 59.5171C49.8094 60.0228 50.0428 60.4953 50.3149 60.9357H41.1036V35.7352C41.1036 32.5841 42.366 29.6332 44.6001 27.4683ZM49.7976 77.996H70.1572L49.7976 87.8937V77.996ZM109.672 91.6462V77.9962H114.039V91.646H109.672V91.6462ZM117.47 74.5261H102.636C101.678 74.5261 100.901 75.3029 100.901 76.2611C100.901 77.2192 101.678 77.996 102.636 77.996H106.203V88.1915L85.2309 77.996H93.2741C94.2323 77.996 95.0091 77.2192 95.0091 76.2611C95.0091 75.3029 94.2323 74.5261 93.2741 74.5261H38.5301C35.7399 74.5261 33.4699 72.2561 33.4699 69.4659C33.4699 66.6757 35.7399 64.4056 38.5301 64.4056H56.5793H100.7H117.47C120.26 64.4056 122.53 66.6757 122.53 69.4659C122.53 72.2561 120.26 74.5261 117.47 74.5261Z" fill="#BA7894"/>
</svg>
