<svg width="120" height="97" viewBox="0 0 120 97" fill="none" xmlns="http://www.w3.org/2000/svg">
<circle cx="48.5" cy="48.5" r="48" fill="#F7E5C1" fill-opacity="0.5"/>
<path d="M118.53 75.2504C117.75 67.1366 108.787 60.3489 101.038 64.4666L98.401 55.89L104.661 31.0619C106.26 24.6035 104.661 16.4986 99.9288 6.96074C98.7006 4.15427 94.3604 4.59037 93.6158 7.53034L88.5042 24.0369L83.4193 7.62231C82.6925 4.65267 78.3048 4.29964 77.1003 7.10314C72.3774 16.638 70.7902 24.737 72.3833 31.1895L78.6133 55.9107L75.9433 64.5734C62.6823 58.3968 53.2602 76.891 61.1278 86.9717C66.7407 95.3971 79.266 93.0564 82.3929 83.7114C82.4967 83.9339 86.8814 69.326 87.0298 69.0056L89.7532 68.2254L94.2477 82.8095C95.194 85.5952 96.7604 88.0219 99.0863 89.8286C108.989 97.3076 120.719 86.0699 118.53 75.2504ZM76.6998 30.1067C75.4954 25.2146 76.596 18.9401 79.9632 11.4671L86.1932 31.5485L81.1736 47.7465L76.6998 30.1067ZM84.6505 65.054C83.9296 65.2617 83.36 65.8194 83.1375 66.5373L78.557 81.2965C76.7799 87.8677 68.9272 90.2825 64.7501 84.37C61.4452 79.7123 62.1543 72.4529 66.9514 69.0768C68.9034 67.7092 71.4221 67.454 73.6086 68.4004C75.3025 69.1065 77.0351 71.5302 78.824 69.5841C79.0435 69.3438 79.2067 69.056 79.3016 68.7445L97.0897 11.3544C100.46 18.8393 101.54 25.0989 100.353 29.9821L92.0464 62.9447L84.6505 65.054ZM112.264 84.2661V84.2602C108.461 89.8909 100.57 88.1436 98.6591 81.8572L94.037 66.9675C95.2415 66.5255 96.0781 65.4486 96.3125 64.1996L97.6801 68.6348C98.0391 69.8096 99.2851 70.4711 100.46 70.1092C101.531 69.6701 102.278 68.6615 103.403 68.2817C112.377 64.9175 117.242 78.0005 112.264 84.2661Z" fill="#BA7894"/>
<path d="M60.1459 58.9901C62.9405 59.358 63.6376 55.1364 60.8579 54.5995C55.9391 53.5255 40.9071 54.1011 43.7847 66.3475L47.763 86.4941C47.9143 87.1586 47.3863 87.8143 46.7039 87.8113H41.6606C38.3409 87.8024 35.6531 85.1087 35.6531 81.789V17.2343C35.659 12.7932 39.2576 9.1976 43.6987 9.19167H60.5019C61.7301 9.19167 62.7269 8.19487 62.7269 6.96667C62.7269 5.73847 61.7301 4.74167 60.5019 4.74167H43.6987C36.8012 4.75057 31.212 10.3368 31.2061 17.2343V81.789C31.212 87.568 35.8934 92.2494 41.6725 92.2583H46.7158C50.1809 92.291 52.8687 88.9624 52.1211 85.5833L48.1457 65.4367C46.2589 57.5988 56.577 58.6608 60.1459 58.9901Z" fill="#BA7894"/>
<path d="M60.5019 14.6474H42.2688C39.3644 14.6592 39.3555 19.0855 42.2688 19.0974H60.5019C63.4033 19.0855 63.4152 14.6592 60.5019 14.6474Z" fill="#BA7894"/>
<path d="M60.5019 24.556H42.2688C39.3644 24.5679 39.3555 28.9942 42.2688 29.006H60.5019C63.4033 28.9942 63.4152 24.5679 60.5019 24.556Z" fill="#BA7894"/>
<path d="M60.5019 34.4647H42.2688C39.3644 34.4766 39.3555 38.9028 42.2688 38.9147H60.5019C63.4033 38.9028 63.4152 34.4766 60.5019 34.4647Z" fill="#BA7894"/>
<path d="M42.2688 44.3704C39.3644 44.3823 39.3555 48.8085 42.2688 48.8204H60.5019C63.4063 48.8085 63.4152 44.3823 60.5019 44.3704H42.2688Z" fill="#BA7894"/>
<path d="M88.5043 53.6205C85.2499 53.6353 85.2499 58.5837 88.5043 58.5985C91.7587 58.5837 91.7587 53.6353 88.5043 53.6205Z" fill="#BA7894"/>
</svg>
