<svg width="126" height="97" viewBox="0 0 126 97" fill="none" xmlns="http://www.w3.org/2000/svg">
<circle cx="48" cy="48.5" r="48" fill="#F7E5C1" fill-opacity="0.5"/>
<path d="M64.5 20C68.6421 20 72 16.6421 72 12.5C72 8.35786 68.6421 5 64.5 5C60.3579 5 57 8.35786 57 12.5C57 16.6421 60.3579 20 64.5 20Z" fill="white"/>
<path d="M109.996 46.6211C107.827 43.1336 103.921 41 99.7057 41H56.4639C52.1575 41 48.1814 43.2262 46.0449 46.8335L40.0713 56.9187L40.4999 63.5H115.5V55.4722L109.996 46.6211Z" fill="white"/>
<path d="M46.2188 69.4981H67.5L76.5 66.4347L111 69.5H114.155C118.212 69.5 121.5 66.1422 121.5 62C121.5 57.7355 118.022 54.329 113.85 54.5065L46.2188 60.308V69.4981Z" fill="white"/>
<path d="M90.7353 30.6974L89.5467 31.2562L85.0762 21.7477L86.2647 21.1887C87.2104 20.7441 88.294 20.6934 89.2771 21.0477C90.2602 21.402 91.0622 22.1323 91.5069 23.078L92.6249 25.4551C92.8451 25.9234 92.9708 26.4305 92.995 26.9474C93.0192 27.4642 92.9413 27.9808 92.7658 28.4676C92.5904 28.9544 92.3207 29.4019 91.9723 29.7845C91.6239 30.1671 91.2036 30.4773 90.7353 30.6974Z" fill="white"/>
<path d="M62.2098 44.1093L63.3984 43.5504L58.9276 34.0419L57.739 34.6006C56.7933 35.0453 56.063 35.8474 55.7087 36.8305C55.3544 37.8136 55.4052 38.8972 55.8498 39.8429L56.9675 42.2201C57.4121 43.1658 58.2142 43.8961 59.1974 44.2504C60.1805 44.6047 61.2641 44.5539 62.2098 44.1093Z" fill="white"/>
<path d="M90.3907 43.625C91.2986 38.6566 90.7356 33.5312 88.771 28.8783L85.1305 20.2569C84.3372 18.378 83.1725 16.6787 81.7062 15.2611C80.24 13.8434 78.5025 12.7365 76.598 12.0068C74.6935 11.2772 72.6612 10.9398 70.6231 11.0148C68.5849 11.0899 66.583 11.5759 64.7373 12.4438C62.8916 13.3115 61.2402 14.5432 59.8822 16.065C58.5243 17.5867 57.4877 19.367 56.8347 21.2992C56.1817 23.2314 55.9258 25.2755 56.0822 27.3091C56.2387 29.3426 56.8043 31.3235 57.7452 33.1331L62.0626 41.4363C64.3926 45.9175 67.9806 49.6206 72.386 52.0908C74.4233 53.2333 76.7092 53.86 79.0443 53.9163C80.675 53.9557 82.2924 53.6149 83.7686 52.9209C85.2447 52.2268 86.539 51.1986 87.5489 49.9177C88.9952 48.0833 89.9708 45.9229 90.3907 43.625Z" fill="white"/>
<path d="M90.39 43.625C89.9714 45.923 88.9961 48.0835 87.5494 49.9175C86.5657 51.1652 85.3119 52.1736 83.8823 52.867C82.4527 53.5603 80.8845 53.9206 79.2957 53.9206C79.2113 53.9206 79.1288 53.9188 79.0444 53.9169C76.7094 53.8597 74.4237 53.2328 72.3863 52.0906C67.9806 49.621 64.3924 45.9181 62.0626 41.4369L57.8044 33.2487V33.2469L57.7444 33.1325C56.8037 31.3229 56.2382 29.342 56.0819 27.3085C55.9256 25.275 56.1816 23.2309 56.8347 21.2987C57.4878 19.3666 58.5244 17.5864 59.8824 16.0647C61.2404 14.5431 62.8918 13.3115 64.7375 12.4437C66.5832 11.576 68.5851 11.09 70.6232 11.015C72.6613 10.9399 74.6936 11.2773 76.5981 12.007C78.5026 12.7367 80.2401 13.8435 81.7063 15.2612C83.1725 16.6788 84.3373 18.378 85.1307 20.2569L85.1982 20.4162L88.7719 28.8781C90.736 33.5312 91.2984 38.6567 90.39 43.625Z" fill="white"/>
<path d="M85.1981 20.4162C83.4131 18.3312 81.6468 16.8781 79.8318 15.98C78.9316 15.5299 77.973 15.2074 76.9837 15.0219C76.0314 14.8502 75.0609 14.8017 74.0962 14.8775C72.9892 14.969 71.8953 15.1803 70.8337 15.5075C69.9614 15.7735 69.1051 16.089 68.2687 16.4525C67.8731 16.6212 67.47 16.805 67.0631 17C66.5437 17.25 66.0462 17.5062 65.5706 17.7687C64.5937 18.3035 63.6591 18.9122 62.775 19.5894C61.9586 20.2147 61.205 20.918 60.525 21.6894C60.0001 22.285 59.533 22.9291 59.13 23.6131C58.6165 24.4796 58.2181 25.4093 57.945 26.3787C57.3618 28.4375 57.3168 30.7194 57.8043 33.2469L57.7443 33.1325C56.6205 30.9806 56.0332 28.589 56.0325 26.1612C56.0325 26.015 56.0343 25.8687 56.04 25.7244C56.1018 23.6012 56.6076 21.5145 57.525 19.5987C57.9588 18.6924 58.4813 17.8313 59.085 17.0281C60.2429 15.4905 61.6853 14.1895 63.3337 13.1956C63.7886 12.921 64.2573 12.67 64.7381 12.4437C65.1693 12.2412 65.6043 12.0612 66.0431 11.9037C68.8957 10.8702 71.9936 10.7206 74.9325 11.4744C75.9573 11.7382 76.952 12.1077 77.9006 12.5769C81.1552 14.1849 83.7218 16.9112 85.1306 20.2569L85.1981 20.4162Z" fill="white"/>
<path d="M41.4729 69.4981H46.5L75 59L96 56L90 51.5H73.5L47.9387 54.0558C44.9887 54.3509 42.0806 54.9728 39.2679 55.9102C37.8796 56.373 36.672 57.2608 35.8163 58.448C34.9606 59.6352 34.5001 61.0615 34.5 62.525C34.5 63.4407 34.6803 64.3475 35.0307 65.1935C35.3811 66.0395 35.8948 66.8082 36.5423 67.4557C37.1898 68.1032 37.9585 68.6169 38.8045 68.9673C39.6505 69.3178 40.5572 69.4981 41.4729 69.4981Z" fill="white"/>
<path d="M117 69.5H39C36.5147 69.5 34.5 71.5147 34.5 74V80C34.5 82.4853 36.5147 84.5 39 84.5H117C119.485 84.5 121.5 82.4853 121.5 80V74C121.5 71.5147 119.485 69.5 117 69.5Z" fill="#EBEBE9"/>
<path d="M50.9541 84.1782L49.5698 84.2756L50.041 89.1296C50.2068 90.8358 51.787 92.1168 53.5709 91.9915C55.3548 91.8663 56.6665 90.3817 56.5009 88.6756C56.2407 85.9949 53.7573 83.9814 50.9541 84.1782Z" fill="white"/>
<path d="M50.1199 85.4907L49.5699 84.2742L44.8884 86.0947C43.2429 86.7346 42.4837 88.5241 43.1925 90.0918C43.9012 91.6595 45.8096 92.4117 47.4549 91.7718C50.0405 90.7664 51.2336 87.9543 50.1199 85.4907Z" fill="white"/>
<path d="M46.146 80.5269C45.5735 79.92 44.7936 79.5507 43.9613 79.4925C43.129 79.4342 42.3053 79.6912 41.6538 80.2124L41.6058 80.2516C41.2916 80.4978 41.0319 80.8065 40.8431 81.1582C40.6544 81.5099 40.5408 81.897 40.5094 82.295C40.478 82.6929 40.5297 83.093 40.661 83.47C40.7923 83.8469 41.0005 84.1925 41.2723 84.4848L41.4317 84.659C43.236 86.6326 46.3965 86.8539 48.4903 85.1533L49.5725 84.2744L46.146 80.5269Z" fill="white"/>
<path d="M51.0387 75.9607C49.498 75.0684 47.5079 75.5116 46.5934 76.9509C45.1563 79.2121 45.9537 82.1821 48.3747 83.584L49.57 84.2765L52.1721 80.1819C53.0866 78.7437 52.579 76.8528 51.0387 75.9607Z" fill="white"/>
<path d="M55.9688 79.4675C53.2223 78.833 50.4938 80.4132 49.875 82.9972L49.5696 84.2733H49.5739L50.9539 84.1773C52.3564 84.0799 53.7407 84.5396 54.8063 85.4566C56.4611 85.7065 58.0459 84.7364 58.4198 83.1753C58.8137 81.5317 57.7161 79.8714 55.9688 79.4675Z" fill="white"/>
<path d="M117 69.5H98.5875C86.292 77.3669 70.4895 81.9365 58.2456 84.5H117C118.194 84.5 119.338 84.0259 120.182 83.182C121.026 82.3381 121.5 81.1935 121.5 80V74C121.5 72.8065 121.026 71.6619 120.182 70.818C119.338 69.9741 118.194 69.5 117 69.5Z" fill="#E0E0DE"/>
<path d="M123 62C123.011 59.9363 122.306 57.9325 121.006 56.3302C119.705 54.7279 117.889 53.6261 115.867 53.2126L111.268 45.8324C108.838 41.9259 104.407 39.5 99.7046 39.5H92.2704C92.3267 36.985 92.03 34.4746 91.3892 32.042C92.6883 31.4251 93.6902 30.3189 94.176 28.9653C94.6618 27.6117 94.5918 26.1209 93.9814 24.8187L92.8594 22.4399C92.3084 21.2732 91.3598 20.3409 90.1836 19.8104C89.0074 19.2798 87.6807 19.1857 86.4414 19.5449C85.1164 16.4555 82.881 13.8434 80.0332 12.0571C78.1153 10.8353 75.9608 10.0326 73.7109 9.70156C73.491 9.66406 73.2347 9.65937 73.0018 9.63349C72.6 8.4158 71.942 7.29832 71.0721 6.35627C70.2021 5.41422 69.1405 4.66947 67.9586 4.17215C66.7767 3.67482 65.5019 3.43646 64.2202 3.47312C62.9384 3.50978 61.6794 3.8206 60.5279 4.38466C59.3763 4.94872 58.359 5.75293 57.5443 6.74316C56.7296 7.73339 56.1366 8.88665 55.805 10.1253C55.4734 11.364 55.4111 12.6593 55.6221 13.9241C55.8332 15.1889 56.3127 16.3938 57.0285 17.4577C55.797 19.4364 55 21.654 54.69 23.9639C54.5889 24.693 54.5387 25.4282 54.54 26.1642C54.5348 28.7799 55.1569 31.3586 56.3541 33.6841C55.4108 34.3348 54.6966 35.2662 54.3128 36.3459C53.9291 37.4257 53.8954 38.5989 54.2166 39.6989C50.2753 40.3437 46.7676 42.6537 44.7615 46.067L39.9636 54.1338C39.5734 54.2514 39.18 54.3588 38.7934 54.4884C37.3779 54.9583 36.1119 55.7941 35.1236 56.9112C34.1353 58.0282 33.46 59.3866 33.166 60.8488C32.872 62.311 32.9699 63.8249 33.4497 65.2371C33.9295 66.6492 34.7741 67.9094 35.898 68.8899C35.0161 69.4204 34.2861 70.1694 33.7784 71.0646C33.2707 71.9598 33.0026 72.9709 33 74V80C33.0002 80.8449 33.1785 81.6802 33.5233 82.4516C33.8681 83.2229 34.3716 83.9129 35.001 84.4766L36.999 82.2384C36.6845 81.9564 36.433 81.6114 36.2609 81.2257C36.0888 80.84 35.9999 80.4223 36 80V74C36.001 73.2047 36.3174 72.4422 36.8798 71.8798C37.4422 71.3174 38.2047 71.001 39 71H117C117.795 71.001 118.558 71.3174 119.12 71.8798C119.683 72.4422 119.999 73.2047 120 74V80C119.999 80.7953 119.683 81.5578 119.12 82.1202C118.558 82.6825 117.795 82.9989 117 83H63V86H117C118.591 85.9984 120.116 85.3658 121.241 84.2409C122.366 83.116 122.998 81.5908 123 80V74C122.996 72.9387 122.71 71.8974 122.171 70.9831C121.632 70.0689 120.86 69.3145 119.933 68.7976C120.898 67.948 121.671 66.9022 122.2 65.7299C122.729 64.5577 123.002 63.2861 123 62ZM108.722 47.4189L112.299 53.1592L96.5336 54.5259L90.9 50.3C90.6405 50.1049 90.3246 49.9996 90 50H89.3203C90.5836 48.1677 91.4498 46.0914 91.8634 43.9046C91.9494 43.4519 92.0216 42.9809 92.0816 42.4998H99.7046C103.379 42.5 106.834 44.3838 108.722 47.4189ZM90.1436 23.7147L91.2686 26.1011C91.5105 26.6202 91.5614 27.208 91.4121 27.761C91.2628 28.3139 90.9231 28.7963 90.4528 29.1232C90.3471 28.8506 90.2653 28.5607 90.1509 28.2969L87.6354 22.3437C88.1448 22.277 88.6623 22.3738 89.1131 22.6202C89.5639 22.8667 89.9248 23.2499 90.1436 23.7147ZM83.7452 20.8422L87.3926 29.4761C87.7017 30.1913 87.9692 30.9237 88.1938 31.6698C89.1324 34.6488 89.4822 37.7821 89.2236 40.8948C89.1695 41.72 89.0663 42.5413 88.9146 43.3542C88.5342 45.409 87.6653 47.3421 86.3813 48.9907C86.0904 49.352 85.7718 49.6902 85.4284 50.0021L72.0981 50.1333C69.0751 48.2555 66.5058 45.7311 64.575 42.7417C64.1489 42.0986 63.7577 41.4331 63.4031 40.748L59.079 32.4438C58.0768 30.5338 57.5509 28.41 57.546 26.2531L58.6322 26.6446L59.6488 23.8233L57.8899 23.1892C58.0957 22.263 58.3988 21.3611 58.794 20.4986L62.169 22.7486L63.8333 20.2526L60.3234 17.9129C61.3441 16.5586 62.6107 15.4088 64.0571 14.5235L66.1729 19.0235L68.8886 17.7461L66.7719 13.244C68.3147 12.714 69.9418 12.4725 71.5719 12.5315L70.5456 16.6366L73.4548 17.3634L74.5631 12.9296C75.5428 13.1792 76.4906 13.5405 77.3878 14.0064L76.7477 15.7842L79.569 16.8009L79.9577 15.7214C81.6092 17.1031 82.9076 18.8585 83.7452 20.8422ZM57.7511 36.3875L60.7442 42.1361C60.8886 42.4092 61.0254 42.6577 61.1576 42.8947C60.6062 43.0457 60.019 42.996 59.5008 42.7543C58.9827 42.5126 58.5672 42.0947 58.3286 41.5751L57.2051 39.2126C56.9886 38.7438 56.9249 38.2189 57.0228 37.712C57.1208 37.2051 57.3756 36.7418 57.7511 36.3875ZM64.5 6.49999C65.5665 6.50235 66.613 6.78921 67.5316 7.33097C68.4502 7.87273 69.2077 8.64977 69.7258 9.58193C65.6175 9.92529 61.7866 11.7944 58.9875 14.8212C58.5945 13.9114 58.4347 12.918 58.5225 11.9308C58.6103 10.9436 58.9429 9.99396 59.4902 9.16775C60.0376 8.34155 60.7823 7.6649 61.6571 7.19908C62.5318 6.73326 63.509 6.49298 64.5 6.49999ZM47.3438 47.5947C49.0284 44.726 52.0901 42.8671 55.4758 42.563L55.6129 42.8516C55.9135 43.4997 56.3394 44.082 56.8662 44.5647C57.393 45.0474 58.0102 45.421 58.6821 45.664C59.354 45.9069 60.0674 46.0144 60.7811 45.9802C61.4948 45.946 62.1946 45.7708 62.8402 45.4647L62.8498 45.4604C64.2132 47.3656 65.8173 49.0864 67.6221 50.5801L47.7891 52.5635C46.5367 52.6884 45.2914 52.8856 44.0537 53.1249L47.3438 47.5947ZM39.7427 57.3329C42.4499 56.4315 45.2488 55.8332 48.0879 55.5489L73.5 53H89.5005L92.2031 55.0272L74.7876 57.5131C74.683 57.5281 74.5804 57.5541 74.4814 57.5907L46.2319 67.9985H41.4727C40.1731 67.9985 38.9159 67.5359 37.9261 66.6937C36.9363 65.8515 36.2785 64.6846 36.0704 63.4017C35.8623 62.1188 36.1175 60.8038 36.7903 59.6919C37.4632 58.58 38.5097 57.7438 39.7427 57.3329ZM114.15 68H111.066L76.6312 64.9458C76.4232 64.9252 76.2131 64.9508 76.0161 65.0208L67.2525 68H54.9062L75.3692 60.4604L94.7934 57.6875L113.85 56H114.134C114.345 55.9992 114.556 56.0114 114.766 56.0366C117.75 56.3647 120 58.9282 120 62C120 65.309 117.375 68 114.15 68Z" fill="#BA7894"/>
<path d="M63.9946 37.1036L65.8754 39.4415C67.5006 38.1372 69.4125 37.2379 71.4536 36.8178L70.8536 33.8793C68.344 34.3952 65.9931 35.5004 63.9946 37.1036Z" fill="#BA7894"/>
<path d="M78.8526 41.8687C77.786 42.3711 76.6269 42.6469 75.4483 42.6787L75.2021 42.6845L75.2725 45.6845L75.5171 45.6787C78.1207 45.6096 80.6246 44.6635 82.6234 42.9937L80.6987 40.6938C80.1365 41.1633 79.516 41.5582 78.8526 41.8687Z" fill="#BA7894"/>
<path d="M70.3183 32.8276L71.1678 29.9506C66.9287 28.7011 62.666 30.7124 61.0327 34.7379L63.813 35.8657C64.8707 33.2583 67.5425 32.0116 70.3183 32.8276Z" fill="#BA7894"/>
<path d="M74.1187 28.5635L76.8749 29.7448C78.013 27.089 80.6776 25.8292 83.3656 26.6729L84.268 23.8136C80.1269 22.502 75.8583 24.5015 74.1187 28.5635Z" fill="#BA7894"/>
<path d="M72.3076 32.1213L75.0236 30.8458L78.9304 39.1649L76.2144 40.4404L72.3076 32.1213Z" fill="#BA7894"/>
<path d="M79.3023 33.3301C80.928 32.0261 82.8401 31.1268 84.8813 30.7062L84.2778 27.7677C81.769 28.284 79.4188 29.3891 77.4209 30.9918L79.3023 33.3301Z" fill="#BA7894"/>
<path d="M59.323 80.1455C58.9876 79.6062 58.548 79.1393 58.03 78.7719C57.512 78.4045 56.9259 78.144 56.3061 78.0058C55.5701 77.8353 54.811 77.7876 54.0595 77.8646C54.0426 77.7678 54.0235 77.6713 53.9999 77.5747C53.8489 76.9645 53.5752 76.3916 53.1953 75.8908C52.8154 75.3901 52.3373 74.9721 51.7903 74.6624C49.5664 73.3745 46.6664 74.0398 45.3274 76.1461C44.9561 76.7291 44.6869 77.371 44.5313 78.0444C43.8592 77.931 43.1707 77.962 42.5115 78.1352C41.8522 78.3083 41.2374 78.6198 40.7078 79.0488L40.6605 79.0863C40.186 79.4647 39.7947 79.9369 39.511 80.4734C39.2273 81.0099 39.0575 81.5992 39.012 82.2044C38.9675 82.8029 39.0469 83.404 39.2454 83.9703C39.4438 84.5367 39.757 85.0559 40.1654 85.4956L40.3247 85.6704C40.7778 86.1645 41.3059 86.5841 41.8898 86.9135C41.597 87.5013 41.4393 88.1472 41.4282 88.8039C41.4171 89.4605 41.553 90.1113 41.8259 90.7087C42.3561 91.8205 43.2863 92.6914 44.4306 93.1475C45.5748 93.6035 46.8491 93.6112 47.9987 93.1689C48.6789 92.9061 49.3103 92.5312 49.8666 92.0598C50.321 92.5162 50.8611 92.8783 51.4558 93.1255C52.0505 93.3726 52.6881 93.4999 53.3322 93.5C53.4462 93.5 53.5608 93.496 53.676 93.488C54.3053 93.449 54.9202 93.2832 55.4838 93.0008C56.0475 92.7183 56.5483 92.3249 56.9562 91.8442C57.3433 91.3903 57.6347 90.8629 57.813 90.2936C57.9913 89.7243 58.0528 89.1249 57.9938 88.5312C57.9255 87.8344 57.7399 87.1541 57.4448 86.5192C58.0483 86.2334 58.5801 85.8162 59.0013 85.2981C59.4225 84.78 59.7224 84.1741 59.8789 83.525C60.0155 82.953 60.0366 82.3595 59.9412 81.7793C59.8457 81.199 59.6356 80.6436 59.323 80.1455ZM55.6313 80.9291C55.8648 80.9792 56.0861 81.0754 56.282 81.212C56.478 81.3486 56.6448 81.5228 56.7726 81.7246C56.8758 81.8865 56.9457 82.0673 56.9782 82.2565C57.0107 82.4457 57.0051 82.6395 56.9618 82.8266C56.7994 83.5053 56.1347 83.9754 55.3733 83.9953C54.2723 83.1838 52.9526 82.7224 51.5858 82.6709C52.2794 81.3024 53.9488 80.5398 55.6313 80.9291ZM47.8594 77.7553C48.3387 77.0015 49.4503 76.7743 50.2868 77.2586C50.4829 77.3668 50.6548 77.5138 50.7922 77.6907C50.9295 77.8676 51.0294 78.0706 51.0857 78.2874C51.135 78.4889 51.1389 78.6989 51.0972 78.9022C49.97 79.6236 49.1058 80.6896 48.6334 81.9417C48.0571 81.4823 47.6477 80.8461 47.4683 80.1313C47.3684 79.7294 47.3516 79.3115 47.4189 78.9029C47.4861 78.4944 47.636 78.1039 47.8594 77.7553ZM42.0038 82.427C42.0206 82.2296 42.078 82.0377 42.1724 81.8635C42.2667 81.6893 42.3961 81.5364 42.5522 81.4145L42.5997 81.377C42.8895 81.1477 43.242 81.0116 43.6108 80.9866C43.9795 80.9616 44.3472 81.0488 44.6653 81.2369C45.0641 82.4991 45.8468 83.6053 46.9043 84.4014C46.1926 84.763 45.3831 84.8849 44.5964 84.749C43.8097 84.6131 43.0881 84.2267 42.5389 83.6472L42.3794 83.4727C42.2482 83.3336 42.1471 83.1689 42.0825 82.989C42.0179 82.8091 41.9911 82.6178 42.0038 82.427ZM46.9112 90.3738C46.0142 90.7224 44.9376 90.3103 44.5594 89.4738C44.4275 89.1885 44.3941 88.8674 44.4643 88.561C44.5345 88.2546 44.7044 87.9802 44.9474 87.7807C45.042 87.7846 45.1365 87.7876 45.2312 87.7876C46.5525 87.7923 47.8455 87.4058 48.9475 86.6769C49.1015 87.3011 49.0534 87.9581 48.81 88.5532C48.6353 88.9706 48.3765 89.3477 48.0499 89.6609C47.7232 89.9741 47.3356 90.2168 46.9112 90.3738ZM54.6653 89.9073C54.5151 90.081 54.3314 90.2226 54.1252 90.3237C53.9191 90.4247 53.6946 90.4831 53.4653 90.4953C53.0981 90.523 52.731 90.4407 52.4109 90.2588C52.0907 90.077 51.8321 89.8038 51.6679 89.4742C52.1148 88.2599 52.1576 86.9337 51.7898 85.6931C53.4702 85.8944 54.8483 87.1788 55.0075 88.8208C55.0265 89.0156 55.0061 89.2122 54.9473 89.399C54.8885 89.5857 54.7926 89.7586 54.6653 89.9073Z" fill="#BA7894"/>
</svg>
